<?xml version="1.0" encoding="UTF-8"?> <svg xmlns="http://www.w3.org/2000/svg" width="413" height="81" viewBox="0 0 413 81" fill="none"><g clip-path="url(#qmvw6lcw7a)" fill-rule="evenodd" clip-rule="evenodd"><path opacity=".88" d="M228.03 26.922c1.683-.033 3.366 0 5.049.1 1.125.134 2.139.547 3.009 1.27.078 1.36.044 2.72-.101 4.08h-.579c-.914-4.213-3.433-5.728-7.578-4.57-1.17.714-1.973 1.717-2.43 3.01a19.695 19.695 0 0 0 0 10.296c1.471 3.298 3.912 4.234 7.289 2.819 1.671-.98 2.574-2.43 2.719-4.38h.579c.145 1.36.179 2.72.101 4.079a7.75 7.75 0 0 1-3.21 1.27c-8.347.914-12.136-2.808-11.367-11.176.691-3.711 2.864-5.973 6.508-6.798h.011z" fill="#fff"></path><path opacity=".89" d="M97.466 27.112c2.14-.067 4.28 0 6.408.19-1.036.155-1.649.746-1.85 1.749-.134 3.565-.134 7.12 0 10.686.702 3.22 2.675 4.48 5.929 3.789 1.616-.658 2.552-1.861 2.819-3.589.134-3.298.134-6.607 0-9.906-.267-1.582-1.203-2.496-2.819-2.719a28.491 28.491 0 0 1 6.608 0c-1.538.1-2.541.88-3.009 2.33-.067 3.431-.133 6.863-.189 10.296-.29 2.685-1.75 4.334-4.38 4.958-2.73.646-4.959-.1-6.697-2.228a8.993 8.993 0 0 1-.77-1.94c-.01-4.089-.144-8.167-.39-12.235a1.297 1.297 0 0 0-.479-.68c-.512-.077-.902-.3-1.17-.679l-.01-.022z" fill="#fff"></path><path opacity=".87" d="M118.25 27.112c1.616-.034 3.243 0 4.859.1a548.16 548.16 0 0 1 10.397 13.305c.134-3.365.134-6.73 0-10.107-.245-1.772-1.259-2.808-3.009-3.109a33.694 33.694 0 0 1 7.188 0c-1.683.212-2.752 1.114-3.209 2.719a197.53 197.53 0 0 0-.29 14.765 2.464 2.464 0 0 1-1.27-.19c-3.366-4.401-6.731-8.803-10.108-13.215a73.838 73.838 0 0 0 .189 10.296c.335 1.66 1.338 2.63 3.009 2.92a35.498 35.498 0 0 1-7.377 0c1.939-.28 3.064-1.382 3.399-3.299.133-3.566.133-7.12 0-10.686-.947-1.56-2.207-2.73-3.789-3.5h.011z" fill="#fff"></path><path opacity=".93" d="M142.343 27.112c2.14-.067 4.28 0 6.408.19-.624.2-1.181.523-1.649.969a76.147 76.147 0 0 0-.29 7.477 79.718 79.718 0 0 0 .29 7.477c.334.702.891 1.148 1.649 1.36a26.798 26.798 0 0 1-6.408 0c.758-.212 1.304-.658 1.65-1.36.134-4.925.134-9.84 0-14.765a1.295 1.295 0 0 0-.479-.68c-.513-.078-.903-.3-1.171-.68v.012z" fill="#fff"></path><path opacity=".94" d="M153.22 27.112h15.546v4.468h-.579c-.101-1.939-1.081-3.187-2.92-3.788a11.683 11.683 0 0 0-3.109-.29c-.034 4.925 0 9.84.1 14.765-.067 1.326.546 2.106 1.85 2.328-2.14.257-4.279.257-6.408 0 1.036-.155 1.649-.746 1.85-1.749.1-5.115.134-10.23.1-15.344-1.582-.167-3.064.134-4.469.88-.925.892-1.515 1.95-1.749 3.21-.19-1.483-.257-2.976-.19-4.469l-.022-.011z" fill="#fff"></path><path opacity=".9" d="M173.045 27.112h12.437v4.669h-.579c-.045-1.493-.68-2.63-1.939-3.399a13.177 13.177 0 0 0-5.829-.88v8.156c1.65.257 3.109-.133 4.38-1.17.279-.423.435-.869.479-1.359h.58v5.627h-.58c-.033-1.003-.49-1.76-1.359-2.228a11.878 11.878 0 0 0-3.5-.29v8.157c2.107.19 4.112-.167 6.029-1.07.546-.29.97-.713 1.271-1.27.379-.858.746-1.705 1.07-2.53.189 1.739.256 3.488.189 5.249-4.213.066-8.414 0-12.637-.19.456-.3.813-.68 1.069-1.17.39-5.048.39-10.107 0-15.155a21.918 21.918 0 0 0-1.069-1.17l-.012.023z" fill="#fff"></path><path opacity=".92" d="M191.11 27.111c3.12-.078 6.23.012 9.328.29 3.187.658 5.159 2.574 5.928 5.728.713 3.176.268 6.15-1.359 8.937-1.427 1.57-3.21 2.451-5.338 2.63a62.517 62.517 0 0 1-8.548-.1c.825-.224 1.382-.736 1.649-1.56.134-4.67.134-9.328 0-13.986a4.474 4.474 0 0 0-.39-.969 9.534 9.534 0 0 1-1.27-.97zm4.469.39c2.485-.334 4.58.368 6.318 2.14a12.9 12.9 0 0 1 1.65 6.318c.044 2.418-.569 4.647-1.85 6.697a5.193 5.193 0 0 1-2.43 1.46 16.377 16.377 0 0 1-3.688.29V27.502z" fill="#fff"></path><path opacity=".93" d="M241.437 27.112a53.46 53.46 0 0 1 6.408.19 4.25 4.25 0 0 0-1.65.969 76.147 76.147 0 0 0-.29 7.477 79.718 79.718 0 0 0 .29 7.477c.335.702.892 1.148 1.65 1.36-2.14.255-4.28.255-6.408 0 .758-.212 1.304-.658 1.649-1.36.134-4.925.134-9.84 0-14.765a1.295 1.295 0 0 0-.479-.68c-.513-.078-.903-.3-1.17-.68v.012z" fill="#fff"></path><path opacity=".94" d="M252.324 27.112h15.546v4.468h-.579c-.1-1.939-1.081-3.187-2.92-3.788a11.679 11.679 0 0 0-3.109-.29c-.033 4.925 0 9.84.1 14.765-.067 1.326.546 2.106 1.85 2.328a26.798 26.798 0 0 1-6.408 0c1.037-.155 1.65-.746 1.85-1.749.101-5.115.134-10.23.101-15.344-1.583-.167-3.065.134-4.469.88-.925.892-1.516 1.95-1.75 3.21a26.068 26.068 0 0 1-.189-4.469l-.023-.011z" fill="#fff"></path><path opacity=".93" d="M272.529 27.112a53.46 53.46 0 0 1 6.408.19 4.25 4.25 0 0 0-1.65.969 76.147 76.147 0 0 0-.29 7.477 83.639 83.639 0 0 0 .29 7.477c.335.702.881 1.148 1.65 1.36-2.14.255-4.28.255-6.408 0 .757-.212 1.304-.658 1.649-1.36.134-4.925.134-9.84 0-14.765a1.295 1.295 0 0 0-.479-.68c-.513-.078-.903-.3-1.17-.68v.012z" fill="#fff"></path><path opacity=".9" d="M284.375 27.112c3.878-.034 7.778 0 11.657.1a1744.058 1744.058 0 0 0-8.737 16.993c2.719.424 5.014-.345 6.898-2.329a8.632 8.632 0 0 0 1.07-2.92h.579a41.382 41.382 0 0 1-.579 5.628 88.46 88.46 0 0 1-11.657 0 2058.192 2058.192 0 0 1 9.328-16.993 13.133 13.133 0 0 0-5.829.769c-1.504.902-2.34 2.228-2.53 3.978h-.579c.056-1.76.189-3.5.39-5.249l-.011.023zM300.512 27.112h12.436v4.669h-.579c-.045-1.493-.68-2.63-1.939-3.399a13.175 13.175 0 0 0-5.829-.88v8.156c1.65.257 3.11-.133 4.38-1.17.279-.423.435-.869.479-1.359h.58v5.627h-.58c-.033-1.003-.49-1.76-1.359-2.228a11.878 11.878 0 0 0-3.5-.29v8.157c2.107.19 4.124-.167 6.029-1.07.546-.29.97-.713 1.271-1.27.379-.858.746-1.705 1.07-2.53.189 1.739.256 3.488.189 5.249-4.212.066-8.414 0-12.637-.19.457-.3.813-.68 1.07-1.17.39-5.048.39-10.107 0-15.155a22.361 22.361 0 0 0-1.07-1.17l-.011.023z" fill="#fff"></path><path opacity=".87" d="M317.985 27.112c1.616-.034 3.243 0 4.859.1a545.72 545.72 0 0 1 10.398 13.305c.133-3.365.133-6.73 0-10.107-.245-1.772-1.26-2.808-3.009-3.109a33.694 33.694 0 0 1 7.188 0c-1.683.212-2.753 1.114-3.21 2.719a197.53 197.53 0 0 0-.289 14.765 2.467 2.467 0 0 1-1.271-.19 33094.75 33094.75 0 0 0-10.108-13.215 73.838 73.838 0 0 0 .19 10.296c.334 1.66 1.337 2.63 3.009 2.92a35.508 35.508 0 0 1-7.378 0c1.939-.28 3.065-1.382 3.399-3.299.134-3.566.134-7.12 0-10.686-.947-1.56-2.206-2.73-3.789-3.5h.011z" fill="#fff"></path><path opacity=".95" d="M351.217 27.112c2.084-.067 4.146 0 6.219.19-1.293.233-1.917 1.002-1.85 2.328-.101 4.925-.134 9.84-.101 14.765a12.846 12.846 0 0 0 5.829-.88c1.504-.97 2.284-2.374 2.329-4.18h.579v5.439c-4.279.066-8.547 0-12.827-.19.569-.223 1.003-.602 1.271-1.17.39-5.048.39-10.107 0-15.155a40.11 40.11 0 0 0-1.46-1.17l.011.023z" fill="#fff"></path><path opacity=".86" d="M376.67 27.112c.468-.078.758.122.881.58a498.678 498.678 0 0 0 6.697 16.123c.39.257.769.513 1.17.77a22.183 22.183 0 0 1-5.828 0c.58-.224.914-.647.97-1.271a15.92 15.92 0 0 0-1.36-3.688 48.247 48.247 0 0 0-6.218 0c-.714 1.27-.881 2.596-.48 3.978.58.512 1.26.702 2.04.579v.58h-5.628v-.58c.635.045 1.114-.223 1.46-.769a147.114 147.114 0 0 0 6.319-16.325h-.012l-.011.023zm-.769 4.09a1758.12 1758.12 0 0 1 3.11 7.577c-1.94.189-3.879.256-5.829.189a279.429 279.429 0 0 1 2.719-7.778v.011z" fill="#fff"></path><path opacity=".88" d="M386.956 27.112c2.34-.067 4.67 0 6.999.189a3.99 3.99 0 0 1-1.17.48 2.532 2.532 0 0 0-.58.969 601.818 601.818 0 0 0 4.38 12.135c.936-2.575 1.805-5.16 2.63-7.778a24.68 24.68 0 0 0-1.85-4.859 5.165 5.165 0 0 0-1.85-.97 31.942 31.942 0 0 1 6.998 0 7.58 7.58 0 0 0-1.459.77 3.077 3.077 0 0 0 0 1.56 238.165 238.165 0 0 0 3.978 11.076 73.696 73.696 0 0 0 3.689-11.177c-.234-1.303-1.003-2.05-2.329-2.228a28.491 28.491 0 0 1 6.608 0c-1.27.19-2.195.835-2.819 1.939a187.066 187.066 0 0 0-5.829 15.154c-.2.312-.49.446-.88.39a149.984 149.984 0 0 0-3.979-10.686c-1.17 3.499-2.329 6.998-3.499 10.486-.256.256-.513.256-.769 0-1.939-5.048-3.878-10.107-5.828-15.155-.301-1.114-1.003-1.76-2.14-1.939-.2-.067-.301-.19-.29-.39h-.011v.034z" fill="#fff"></path><path opacity=".87" d="M104.654 54.702h1.36a406.63 406.63 0 0 0 4.078 11.366c-.512.1-1.036.134-1.56.1-.256-.913-.512-1.816-.769-2.718h-4.859a14.682 14.682 0 0 1-.768 2.53 2.22 2.22 0 0 1-1.561.1 274.752 274.752 0 0 0 4.079-11.367v-.01zm.58 1.94a73.124 73.124 0 0 1 1.939 5.626h-3.689a142.75 142.75 0 0 0 1.75-5.627z" fill="#fff"></path><path opacity=".89" d="M130.107 54.702h7.188v1.17h-5.828v3.878h5.048v1.17h-5.048v5.248h-1.36V54.702z" fill="#fff"></path><path opacity=".87" d="M149.531 54.702h1.36c1.304 3.811 2.663 7.6 4.079 11.366-.513.1-1.037.134-1.56.1-.257-.913-.513-1.816-.769-2.718h-4.859a14.774 14.774 0 0 1-.769 2.53 2.218 2.218 0 0 1-1.56.1 276.205 276.205 0 0 0 4.078-11.367v-.01zm.58 1.94a72.699 72.699 0 0 1 1.939 5.626h-3.689a142.75 142.75 0 0 0 1.75-5.627zM163.718 54.702c1.872-.033 3.755 0 5.628.1 2.083.858 2.763 2.385 2.039 4.569-.19.357-.424.68-.68.97a7.9 7.9 0 0 0-1.359.969 174.533 174.533 0 0 1 2.529 4.758 2.465 2.465 0 0 1-1.649-.1 161.2 161.2 0 0 1-2.429-4.569c-.903-.1-1.817-.134-2.72-.1v4.858h-1.359V54.691v.011zm1.359 1.159a16.095 16.095 0 0 1 4.079.29c1.192.846 1.415 1.905.68 3.209-.279.19-.568.345-.881.479-1.292.1-2.585.134-3.878.1v-4.078z" fill="#fff"></path><path opacity=".9" d="M181.203 54.702h7.188v1.17h-5.829v3.878h5.049v1.17h-5.049V65h5.829v1.17h-7.188V54.701zM197.919 54.702h7.188v1.17h-5.828v3.878h5.048v1.17h-5.048V65h5.828v1.17h-7.188V54.701z" fill="#fff"></path><path opacity=".89" d="M214.624 54.702c1.75-.033 3.499 0 5.249.1 1.315.346 2.195 1.148 2.63 2.43.39 2.139.39 4.279 0 6.407-.29 1.326-1.103 2.14-2.43 2.43a73.78 73.78 0 0 1-5.438.1V54.701h-.011zm1.36 1.181c3.933-.858 5.739.702 5.438 4.67.212 3.866-1.616 5.36-5.438 4.468v-9.137z" fill="#fff"></path><path opacity=".88" d="M243.777 54.702h1.359v11.466h-1.359V54.702zM255.434 54.702c.535-.067 1.058 0 1.56.19a361.1 361.1 0 0 1 5.538 8.546c.101-2.92.134-5.828.101-8.736h1.359v11.466c-.535.067-1.058 0-1.56-.19l-5.538-8.735c-.101 2.975-.134 5.95-.101 8.937h-1.359V54.702zM275.247 54.702h1.36c.078 3.499-.011 6.998-.29 10.486a1.437 1.437 0 0 1-.88.88c-.769.1-1.56.134-2.329.1v-1.17a6.13 6.13 0 0 0 1.56-.1c.279-.223.435-.513.479-.88.1-3.11.134-6.218.1-9.327v.011z" fill="#fff"></path><path opacity=".87" d="M286.704 54.702h1.36c-.078 2.92.011 5.84.289 8.736.925 1.638 2.251 2.05 3.979 1.27.412-.334.702-.757.88-1.27.279-2.897.379-5.816.29-8.736h1.359c.034 2.786 0 5.572-.1 8.358-.423 2.172-1.761 3.276-3.978 3.298-1.817-.034-3.076-.88-3.789-2.53a77.875 77.875 0 0 1-.29-9.126zM304.78 54.702c1.872-.033 3.755 0 5.627.1 2.084.858 2.764 2.385 2.04 4.569-.19.357-.424.68-.68.97-.49.278-.947.601-1.36.969.87 1.571 1.706 3.153 2.53 4.758a2.465 2.465 0 0 1-1.649-.1 199.37 199.37 0 0 1-2.43-4.569c-.902-.1-1.816-.134-2.719-.1v4.858h-1.359V54.691v.011zm1.359 1.159a16.095 16.095 0 0 1 4.079.29c1.192.846 1.415 1.905.68 3.209-.279.19-.569.345-.881.479-1.292.1-2.585.134-3.878.1v-4.078z" fill="#fff"></path><path opacity=".86" d="M321.295 54.891c.491-.245 1.003-.245 1.56 0a90.32 90.32 0 0 0 2.63 5.048 94.792 94.792 0 0 0 2.43-5.048c.512-.256 1.036-.256 1.56 0a130.529 130.529 0 0 1-3.21 6.218 63.923 63.923 0 0 0-.1 5.048h-1.359a58.78 58.78 0 0 0-.101-4.858c-1.136-2.15-2.273-4.29-3.399-6.408h-.011z" fill="#fff"></path><path opacity=".89" d="M349.468 54.702h7.187v1.17h-5.828v3.878h5.048v1.17h-5.048v5.248h-1.359V54.702z" fill="#fff"></path><path opacity=".88" d="M366.173 54.702h1.359v11.466h-1.359V54.702z" fill="#fff"></path><path opacity=".87" d="M377.64 54.702c1.872-.033 3.755 0 5.628.1 2.084.858 2.763 2.385 2.039 4.569-.19.357-.424.68-.68.97a7.9 7.9 0 0 0-1.359.969 174.533 174.533 0 0 1 2.529 4.758 2.465 2.465 0 0 1-1.649-.1 195.49 195.49 0 0 1-2.429-4.569c-.903-.1-1.817-.134-2.72-.1v4.858h-1.359V54.691v.011zm1.359 1.159a16.095 16.095 0 0 1 4.079.29c1.193.846 1.415 1.905.68 3.209-.279.19-.568.345-.88.479-1.293.1-2.586.134-3.879.1v-4.078zM395.125 54.702a3.25 3.25 0 0 1 1.56.19 94.1 94.1 0 0 0 3.588 7.187c1.137-2.396 2.263-4.792 3.399-7.188.502-.189 1.026-.256 1.561-.189v11.466h-1.36c.033-2.852 0-5.705-.1-8.547a146.5 146.5 0 0 1-3.009 6.218c-.39.257-.769.257-1.17 0a311.147 311.147 0 0 1-3.009-6.218c-.101 2.853-.134 5.695-.101 8.547h-1.359V54.702z" fill="#fff"></path><path opacity=".99" d="M40.832 0a312.885 312.885 0 0 1 8.692 8.525c.078 8.814.078 17.628 0 26.453a84.445 84.445 0 0 0-3.655-3.543c-.033-7.087-.078-14.163-.111-21.25a276.401 276.401 0 0 0-4.815-4.758 227.592 227.592 0 0 0-4.368 4.312 8087.446 8087.446 0 0 0 0 61.522c1.404 1.426 2.82 2.82 4.268 4.2a338.067 338.067 0 0 0 4.926-4.869c.033-8.157.078-16.302.111-24.46a78.225 78.225 0 0 1 3.655 3.544c.079 7.567.079 15.122 0 22.688A531.615 531.615 0 0 1 40.8 81a377.755 377.755 0 0 1-7.968-7.856c-.079-21.696-.079-43.38 0-65.065 2.685-2.686 5.349-5.371 8-8.079zM25.553 15.712c.134 16.77.145 33.552.056 50.345L11.222 51.67c-.078-7.265-.078-14.53 0-21.796a84.503 84.503 0 0 1 3.655-3.544l.112 23.457 6.864 6.864c.034-12.47.079-24.938.112-37.396a154.036 154.036 0 0 1 3.6-3.544h-.012zM56.1 15.712a55.467 55.467 0 0 1 3.71 3.544c.034 12.435.078 24.86.112 37.296l6.307-6.307c.034-4.758.078-9.517.112-14.275a78.173 78.173 0 0 1 3.655 3.544c.078 4.245.078 8.48 0 12.725-4.647 4.536-9.25 9.104-13.83 13.718-.055-16.749-.078-33.497-.055-50.245h-.012z" fill="#D7AA6D"></path><path opacity=".96" d="M5.093 35.959c.134 3.343.145 6.697.056 10.073A110.916 110.916 0 0 1 0 40.94c1.705-1.66 3.399-3.32 5.093-4.981zM76.47 35.959c.97.847 1.929 1.705 2.876 2.596.791.78 1.571 1.572 2.329 2.385a105.602 105.602 0 0 1-5.148 5.092c-.056-3.354-.079-6.708-.056-10.073z" fill="#D7AA6D"></path></g><defs><clipPath id="qmvw6lcw7a"><path fill="#fff" d="M0 0h413v81H0z"></path></clipPath></defs></svg> 